<svg xmlns="http://www.w3.org/2000/svg" version="1.1" xmlns:xlink="http://www.w3.org/1999/xlink" xmlns:svgjs="http://svgjs.dev/svgjs" width="1000" height="1000" viewBox="0 0 1000 1000"><rect width="1000" height="1000" fill="#ffffff"></rect><g transform="matrix(0.7,0,0,0.7,150,150)"><svg viewBox="0 0 280 280" data-background-color="#ffffff" preserveAspectRatio="xMidYMid meet" height="1000" width="1000" xmlns="http://www.w3.org/2000/svg" xmlns:xlink="http://www.w3.org/1999/xlink"><g id="tight-bounds" transform="matrix(1,0,0,1,0,0)"><svg viewBox="0 0 280 280" height="280" width="280"><g><svg viewBox="0 0 280 280" height="280" width="280"><g><svg viewBox="0 0 280 280" height="280" width="280"><g id="textblocktransform"><svg viewBox="0 0 280 280" height="280" width="280" id="textblock"><g><svg viewBox="0 0 280 280" height="280" width="280"><g transform="matrix(1,0,0,1,76.53361160891623,74.00336708925556)"><svg viewBox="0 0 126.93277678216754 131.99326582148888" height="131.99326582148888" width="126.93277678216754"><g><svg xmlns="http://www.w3.org/2000/svg" xmlns:xlink="http://www.w3.org/1999/xlink" version="1.1" x="0" y="0" viewBox="8.171548843383789 6.565103054046631 83.65863800048828 86.993896484375" enable-background="new 0 0 100 100" xml:space="preserve" height="131.99326582148888" width="126.93277678216754" class="icon-o-0" data-fill-palette-color="accent" id="o-0"><path d="M91.743 90.976c-0.065-0.214-6.461-21.396-3.576-31.988 0.077-0.213 0.118-0.441 0.118-0.681 0-0.047-0.001-0.094-0.005-0.141V47.198c0.003-0.154-0.011-0.306-0.042-0.452-0.062-0.299-0.19-0.572-0.368-0.806-0.173-0.228-0.396-0.419-0.659-0.557-0.135-0.071-0.28-0.128-0.431-0.166C71.588 40.923 54.78 24.863 52 22.132v-2.185c1.897-1.112 3.936-0.62 6.91 0.231 1.879 0.539 3.845 1.162 5.885 1.049C75.687 20.625 75.07 7.815 74.583 7.417c-0.486-0.398-9.667 3.167-16.495-0.388C54.945 5.392 48 8.537 48 9.522v0.022c0 0.029 0 0.058 0 0.087v9.271c0 0.01 0 0.02 0 0.029v3.618c-3.313 3.523-18.281 18.644-34.713 22.651-0.163 0.036-0.317 0.092-0.462 0.164-0.267 0.133-0.496 0.322-0.674 0.549-0.182 0.23-0.314 0.501-0.381 0.796-0.036 0.157-0.053 0.32-0.049 0.485v10.97c-0.003 0.047-0.005 0.094-0.005 0.142 0 0.213 0.034 0.418 0.095 0.61 2.698 10.987-3.492 31.858-3.555 32.067-0.182 0.605-0.066 1.262 0.311 1.769 0.377 0.508 0.972 0.807 1.604 0.807h79.66c0.634 0 1.23-0.301 1.607-0.81C91.815 92.24 91.928 91.582 91.743 90.976zM52 10.938c1.216-0.409 3.045-0.787 4.662-0.172 4.611 1.761 8.592 2.202 13.473 1.394-0.753 2.393-2.423 5.002-5.43 5.07-1.464 0.029-3.029-0.418-4.693-0.896-1.686-0.483-3.58-1.026-5.542-1.026-0.815 0-1.642 0.094-2.47 0.325V10.938zM84.281 57.856c-0.013 0.079-0.031 0.157-0.031 0.238 0 0.323-0.212 0.722-0.566 1.065-0.76 0.736-1.983 1.135-3.383 1.091-2.983-0.093-4.037-1.5-4.351-2.097v-8.999h8.331V57.856zM51.5 58.107v-8.953h9.225v9.322c0 0.006 0 0.011 0 0.017s0 0.011 0 0.017c0 0.531-1.743 1.739-4.612 1.739-2.816 0-4.547-1.151-4.611-1.691 0.007-0.072 0.011-0.149 0.013-0.229C51.516 58.254 51.511 58.18 51.5 58.107zM48.486 58.361c-0.005 0.049-0.007 0.099-0.007 0.148 0 0.531-1.728 1.739-4.573 1.739-2.757 0-4.2-1.154-4.2-1.772 0-0.113-0.013-0.224-0.037-0.33v-8.992H48.5v8.943c-0.011 0.076-0.016 0.153-0.015 0.23L48.486 58.361zM27.05 49.154h9.62v8.936c-0.567 0.781-1.995 2.204-4.788 2.159-3.095-0.045-4.38-1.49-4.832-2.217V49.154zM63.725 58.478L63.725 58.478v-9.323h9.225v9.322c0 0.441-1.68 1.772-4.736 1.772C65.298 60.249 63.725 59.027 63.725 58.478 63.725 58.479 63.725 58.479 63.725 58.478zM50.243 26.007c1.757 1.686 4.945 4.627 8.993 7.888H41.768C45.646 30.652 48.605 27.718 50.243 26.007zM38.004 36.895h25.1c3.915 2.92 8.35 5.874 12.967 8.26H24.843C29.69 42.776 34.153 39.821 38.004 36.895zM24.05 49.154v9.264c0 0.621-1.493 1.831-4.23 1.831-2.633 0-4.069-1.465-4.07-2.278l-0.03-0.741v-8.075H24.05zM41.249 89.56c3.492-4.279 6.746-11.558 8.72-16.494 2.044 4.931 5.388 12.214 8.861 16.494H41.249zM62.814 89.56c-2.932-2.283-7.973-11.999-11.471-21.149-0.222-0.581-0.78-0.965-1.401-0.965-0.003 0-0.007 0-0.011 0-0.625 0.005-1.183 0.396-1.398 0.984-3.345 9.142-8.312 18.849-11.342 21.13H12.804c1.396-5.266 4.244-17.476 3.564-26.989 0.993 0.424 2.156 0.679 3.451 0.679 2.568 0 4.743-0.806 6.017-2.08 1.181 1.037 3.075 2.037 6.001 2.08 2.895 0.063 4.822-1.011 6.048-2.083 1.265 1.274 3.444 2.083 6.02 2.083 2.548 0 4.726-0.71 6.083-1.847 1.364 1.137 3.557 1.847 6.124 1.847 2.505 0 4.691-0.717 6.07-1.853 1.341 1.141 3.502 1.853 6.031 1.853 2.428 0 4.909-0.728 6.385-2.031 1.215 1.101 3.059 1.951 5.608 2.03 0.098 0.003 0.196 0.005 0.293 0.005 1.089 0 2.127-0.195 3.055-0.555-0.7 9.37 2.202 21.583 3.628 26.861H62.814z" fill="#000000" data-fill-palette-color="accent"></path></svg></g></svg></g><g><path d="M11.629 84.244v0l7.183 3.616c-0.213 0.309-0.396 0.631-0.548 0.968-0.156 0.328-0.295 0.666-0.415 1.014v0c-0.305 0.879-0.478 1.757-0.52 2.635-0.048 0.876 0.061 1.703 0.329 2.484 0.262 0.778 0.686 1.474 1.274 2.088 0.59 0.608 1.365 1.079 2.326 1.412v0c0.62 0.215 1.191 0.303 1.715 0.264 0.517-0.04 0.986-0.189 1.408-0.447 0.42-0.251 0.787-0.595 1.102-1.031 0.308-0.439 0.564-0.952 0.767-1.54v0c0.151-0.436 0.262-0.908 0.331-1.416 0.072-0.513 0.112-1.027 0.12-1.541 0.004-0.523-0.019-1.037-0.071-1.544-0.049-0.513-0.117-0.99-0.205-1.431v0l8.148 3.62c0.072 0.549 0.109 1.125 0.113 1.729-0.005 0.607-0.04 1.219-0.104 1.834-0.058 0.617-0.152 1.226-0.282 1.825-0.121 0.595-0.273 1.156-0.455 1.68v0c-0.524 1.511-1.294 2.824-2.31 3.938-1.01 1.116-2.172 1.985-3.485 2.607-1.309 0.63-2.723 0.99-4.242 1.08-1.514 0.099-3.04-0.118-4.576-0.651v0c-2.036-0.706-3.854-1.665-5.452-2.877-1.601-1.206-2.885-2.611-3.852-4.214-0.963-1.595-1.547-3.366-1.751-5.313-0.212-1.943 0.059-4.003 0.813-6.178v0c0.285-0.822 0.644-1.643 1.077-2.464 0.431-0.814 0.951-1.53 1.562-2.147z" fill="#000000" data-fill-palette-color="primary"></path><path d="M15.656 76.82l4.301-9.096 21.665 14.015-3.405 7.22z" fill="#000000" data-fill-palette-color="primary"></path><path d="M34.559 47.751l24.398 10.278-4.957 8.051-4.031-1.818-2.711 3.347 2.723 3.433-6.792 6.887-14.825-21.683zM43.272 63.36l1.781-2.2-6.013-3.023z" fill="#000000" data-fill-palette-color="primary"></path><path d="M55.356 27.722l17.234-11.266 4.21 6.817-4.594 3.267 8.563 15.784-6.45 4.702-9.738-15.032-4.555 3.325z" fill="#000000" data-fill-palette-color="primary"></path><path d="M103.876 10.078v0c0.33 0.87 0.65 1.843 0.959 2.921 0.318 1.082 0.595 2.215 0.83 3.401 0.238 1.191 0.425 2.419 0.563 3.684 0.135 1.259 0.179 2.506 0.132 3.741-0.042 1.226-0.185 2.415-0.427 3.567-0.245 1.145-0.621 2.209-1.13 3.189-0.514 0.983-1.171 1.855-1.969 2.617-0.801 0.755-1.787 1.355-2.957 1.8v0c-1.364 0.518-2.634 0.747-3.81 0.685-1.176-0.061-2.265-0.328-3.267-0.799-0.998-0.48-1.918-1.129-2.76-1.948-0.835-0.821-1.594-1.736-2.277-2.743-0.68-1.016-1.291-2.087-1.833-3.213-0.54-1.119-1.013-2.214-1.419-3.284v0c-0.628-1.652-1.171-3.328-1.631-5.029-0.456-1.71-0.841-3.439-1.156-5.188v0l8.38-2.819c0.388 1.964 0.821 3.923 1.298 5.875 0.479 1.959 1.077 3.879 1.792 5.763v0c0.076 0.2 0.198 0.494 0.367 0.881 0.169 0.387 0.367 0.816 0.596 1.287 0.235 0.469 0.494 0.943 0.777 1.423 0.283 0.48 0.582 0.899 0.898 1.26 0.312 0.368 0.628 0.645 0.949 0.831 0.324 0.192 0.632 0.232 0.926 0.12v0c0.338-0.128 0.583-0.407 0.735-0.837 0.145-0.428 0.219-0.95 0.221-1.566 0-0.623-0.06-1.316-0.178-2.08-0.112-0.766-0.26-1.551-0.444-2.355-0.19-0.801-0.397-1.6-0.62-2.396-0.227-0.787-0.444-1.517-0.65-2.191-0.214-0.677-0.412-1.272-0.592-1.783-0.18-0.512-0.316-0.889-0.409-1.133v0c-0.349-0.92-0.713-1.83-1.092-2.732-0.37-0.898-0.758-1.788-1.165-2.672v0l8.268-3.141c0.76 1.566 1.458 3.187 2.095 4.864z" fill="#000000" data-fill-palette-color="primary"></path><path d="M134.084 8.044v0c0.166 1.207 0.134 2.302-0.096 3.286-0.235 0.992-0.62 1.879-1.155 2.662-0.534 0.783-1.192 1.478-1.973 2.084-0.782 0.601-1.636 1.12-2.563 1.558-0.926 0.438-1.896 0.801-2.91 1.089-1.014 0.288-2.022 0.504-3.022 0.648v0l1.198 8.722-8.713 1.197c-0.392-2.858-0.78-5.703-1.162-8.535-0.376-2.833-0.748-5.693-1.117-8.581v0c-0.182-1.522-0.384-3.045-0.607-4.568-0.222-1.517-0.403-3.056-0.543-4.617v0c1.533-0.69 3.083-1.264 4.648-1.723 1.565-0.458 3.196-0.804 4.893-1.036v0c0.961-0.132 1.934-0.184 2.917-0.158 0.982 0.02 1.934 0.14 2.856 0.358 0.928 0.217 1.805 0.526 2.63 0.926 0.825 0.4 1.558 0.914 2.198 1.542 0.646 0.621 1.189 1.357 1.631 2.208 0.44 0.845 0.737 1.824 0.89 2.938zM125.867 9.821v0c-0.112-0.816-0.448-1.415-1.007-1.797-0.553-0.39-1.225-0.531-2.014-0.423v0c-0.259 0.036-0.524 0.096-0.796 0.18-0.28 0.079-0.538 0.168-0.774 0.269v0l0.521 5.491c0.176 0.003 0.347-0.007 0.513-0.03 0.159-0.022 0.328-0.045 0.507-0.069v0c0.444-0.061 0.865-0.196 1.262-0.406 0.404-0.204 0.746-0.471 1.025-0.8 0.287-0.323 0.503-0.687 0.65-1.092 0.139-0.411 0.177-0.852 0.113-1.323z" fill="#000000" data-fill-palette-color="primary"></path><path d="M141.425 0.137l10.062-0.137-3.062 25.621-7.981 0.116z" fill="#000000" data-fill-palette-color="primary"></path><path d="M176.659 4.857l8.746 1.753-7.197 24.614-9.844-1.382-2-14.571-4.02 13.419-8.276-1.951 6.812-25.912 9.3 1.718 3.239 14.74z" fill="#000000" data-fill-palette-color="primary"></path><path d="M208.887 17.835l-5.262 25.947-8.871-3.272 0.987-4.31-3.816-1.997-2.828 3.347-8.092-5.3 18.331-18.812zM195.304 29.456l2.508 1.313 1.777-6.491z" fill="#000000" data-fill-palette-color="primary"></path><path d="M237.126 38.547l7.581 6.763-19.761 19.542-6.675-5.457 9.783-10.86-10.745 6.208-2.48-2.212 4.785-9.857-8.176 9.119-6.691-5.62 17.667-19.23 7.492 6.185-5.444 11.893z" fill="#000000" data-fill-palette-color="primary"></path><path d="M245.879 82.866v0c-0.868 0.58-1.722 0.922-2.563 1.026-0.841 0.103-1.659 0.035-2.456-0.205-0.797-0.24-1.569-0.618-2.316-1.133-0.743-0.509-1.444-1.087-2.102-1.734-0.662-0.652-1.274-1.338-1.835-2.057-0.56-0.729-1.059-1.421-1.498-2.078v0c-0.435-0.651-0.863-1.339-1.284-2.064-0.415-0.729-0.798-1.475-1.148-2.24-0.345-0.768-0.645-1.554-0.9-2.357-0.252-0.798-0.434-1.594-0.547-2.388v0l20.21-13.554c0.63 0.424 1.264 0.902 1.901 1.434 0.634 0.526 1.246 1.087 1.838 1.682 0.589 0.604 1.144 1.223 1.665 1.857 0.526 0.63 1.003 1.265 1.431 1.905v0c0.499 0.745 0.954 1.528 1.365 2.348 0.415 0.825 0.746 1.663 0.992 2.513 0.252 0.846 0.405 1.689 0.461 2.53 0.055 0.841-0.023 1.662-0.236 2.464-0.207 0.798-0.564 1.553-1.071 2.263-0.508 0.71-1.206 1.362-2.096 1.958v0c-0.59 0.394-1.196 0.679-1.82 0.854-0.623 0.175-1.247 0.242-1.871 0.201-0.614-0.04-1.217-0.188-1.807-0.446-0.585-0.261-1.137-0.628-1.656-1.102v0c0.28 0.803 0.433 1.598 0.46 2.385 0.031 0.793-0.069 1.552-0.3 2.278-0.229 0.717-0.58 1.39-1.052 2.02-0.476 0.624-1.065 1.171-1.765 1.64zM249.488 68.906v0c0.306-0.205 0.526-0.441 0.662-0.709 0.126-0.269 0.197-0.542 0.213-0.818 0.011-0.273-0.024-0.535-0.105-0.788-0.078-0.262-0.173-0.476-0.285-0.643v0c-0.141-0.211-0.311-0.392-0.507-0.542-0.195-0.159-0.398-0.306-0.608-0.439v0l-3.549 2.241c0.16 0.239 0.381 0.522 0.664 0.848 0.277 0.33 0.598 0.611 0.962 0.842 0.362 0.241 0.759 0.382 1.189 0.425 0.431 0.042 0.885-0.097 1.364-0.417zM242.883 70.099v0c-0.201-0.3-0.427-0.572-0.678-0.815v0l-3.625 2.328c0.071 0.178 0.144 0.354 0.221 0.529 0.078 0.165 0.166 0.32 0.263 0.464v0c0.149 0.223 0.333 0.45 0.552 0.682 0.225 0.228 0.483 0.409 0.775 0.544 0.295 0.141 0.616 0.204 0.961 0.191 0.34-0.01 0.707-0.147 1.102-0.411v0c0.401-0.268 0.676-0.561 0.825-0.879 0.15-0.318 0.223-0.636 0.219-0.955-0.006-0.31-0.071-0.612-0.197-0.907-0.13-0.291-0.27-0.548-0.418-0.771z" fill="#000000" data-fill-palette-color="primary"></path><path d="M272.508 95.289l-21.288 15.739-4.395-8.371 3.62-2.539-1.495-4.039-4.342 0.59-2.457-9.356 26.212-1.687zM254.639 94.818l0.983 2.655 5.668-3.629z" fill="#000000" data-fill-palette-color="primary"></path><path d="M36.256 187.04v0l-7.762 1.575c-0.029-0.372-0.083-0.732-0.16-1.081-0.086-0.353-0.188-0.7-0.307-1.041v0c-0.299-0.867-0.698-1.653-1.196-2.359-0.501-0.712-1.089-1.288-1.765-1.727-0.678-0.446-1.429-0.724-2.253-0.837-0.833-0.116-1.724-0.01-2.673 0.318v0c-0.607 0.21-1.102 0.49-1.483 0.841-0.375 0.349-0.651 0.749-0.829 1.199-0.169 0.455-0.24 0.947-0.213 1.476 0.027 0.529 0.14 1.081 0.338 1.657v0c0.149 0.43 0.348 0.864 0.598 1.301 0.259 0.442 0.543 0.864 0.852 1.267 0.309 0.403 0.64 0.788 0.993 1.155 0.351 0.36 0.694 0.688 1.03 0.983v0l-8.517 2.154c-0.394-0.381-0.771-0.807-1.131-1.277-0.367-0.468-0.714-0.961-1.042-1.478-0.334-0.515-0.632-1.042-0.896-1.581-0.264-0.539-0.485-1.068-0.664-1.586v0c-0.513-1.487-0.717-2.97-0.613-4.451 0.105-1.481 0.474-2.861 1.108-4.142 0.632-1.287 1.509-2.429 2.631-3.426 1.122-0.996 2.439-1.755 3.95-2.277v0c2.005-0.692 3.996-1.057 5.973-1.095 1.976-0.038 3.824 0.269 5.543 0.922 1.726 0.65 3.258 1.665 4.598 3.043 1.342 1.385 2.383 3.149 3.123 5.294v0c0.28 0.81 0.503 1.663 0.672 2.561 0.166 0.891 0.198 1.762 0.095 2.612z" fill="#c8c8c8" data-fill-palette-color="default"></path><path d="M37.864 191.368l5.152 8.48-23.304 10.205-4.076-6.733z" fill="#c8c8c8" data-fill-palette-color="default"></path><path d="M55.62 215.245l-14.899 21.414-6.735-6.43 2.567-3.514-2.673-3.299-3.856 1.923-5.247-7.959 23.922-9.848zM38.795 220.441l1.757 2.168 4.14-5.176z" fill="#c8c8c8" data-fill-palette-color="default"></path><path d="M70.383 229.986l17.042 11.01-4.444 6.523-4.778-2.834-10.787 14.04-6.806-3.933 9.627-14.78-4.817-2.775z" fill="#c8c8c8" data-fill-palette-color="default"></path><path d="M109.321 255.886v0c-0.324 0.858-0.722 1.788-1.193 2.79-0.471 1.002-1.007 2.023-1.607 3.063-0.604 1.031-1.266 2.055-1.986 3.07-0.728 1.02-1.509 1.97-2.342 2.85-0.839 0.878-1.723 1.664-2.65 2.358-0.931 0.686-1.905 1.227-2.92 1.624-1.019 0.388-2.072 0.599-3.157 0.632-1.086 0.034-2.205-0.167-3.357-0.602v0c-1.346-0.508-2.432-1.165-3.259-1.971-0.83-0.814-1.459-1.724-1.887-2.73-0.431-1-0.686-2.076-0.766-3.23-0.086-1.156-0.047-2.329 0.116-3.518 0.157-1.193 0.402-2.381 0.734-3.565 0.33-1.177 0.695-2.295 1.094-3.353v0c0.615-1.628 1.308-3.219 2.081-4.773 0.775-1.56 1.618-3.091 2.528-4.593v0l8.032 3.397c-1.001 1.704-1.962 3.434-2.882 5.189-0.92 1.756-1.73 3.56-2.43 5.414v0c-0.076 0.2-0.18 0.497-0.315 0.89-0.128 0.395-0.258 0.843-0.39 1.344-0.138 0.499-0.259 1.018-0.363 1.559-0.101 0.534-0.156 1.039-0.164 1.515-0.008 0.476 0.045 0.886 0.158 1.23 0.117 0.352 0.32 0.582 0.609 0.691v0c0.338 0.128 0.699 0.081 1.082-0.139 0.39-0.218 0.788-0.554 1.196-1.008 0.404-0.463 0.812-1.013 1.225-1.651 0.413-0.638 0.815-1.316 1.207-2.034 0.39-0.711 0.759-1.434 1.108-2.168 0.346-0.728 0.661-1.41 0.945-2.047 0.29-0.635 0.535-1.2 0.737-1.696 0.199-0.49 0.345-0.857 0.437-1.101v0c0.343-0.908 0.669-1.819 0.978-2.732 0.307-0.907 0.601-1.819 0.883-2.736v0l8.152 3.078c-0.467 1.655-1.012 3.306-1.634 4.953z" fill="#c8c8c8" data-fill-palette-color="default"></path><path d="M135.452 262.627v0c-0.161 1.194-0.484 2.227-0.966 3.1-0.483 0.873-1.083 1.613-1.8 2.219-0.71 0.606-1.515 1.092-2.415 1.456-0.901 0.371-1.849 0.641-2.845 0.811-0.995 0.169-2.014 0.258-3.055 0.265-1.034 0.002-2.045-0.057-3.035-0.177v0l-1.163 8.595-8.595-1.162c0.381-2.819 0.767-5.623 1.158-8.414 0.39-2.784 0.791-5.596 1.202-8.438v0c0.223-1.496 0.429-2.995 0.618-4.495 0.196-1.5 0.434-3.007 0.713-4.523v0c1.636-0.258 3.255-0.397 4.858-0.417 1.61-0.019 3.25 0.085 4.922 0.311v0c0.948 0.128 1.883 0.332 2.805 0.612 0.928 0.281 1.804 0.646 2.627 1.095 0.824 0.449 1.574 0.973 2.249 1.571 0.676 0.598 1.239 1.278 1.69 2.041 0.444 0.762 0.762 1.606 0.954 2.53 0.2 0.919 0.226 1.925 0.078 3.02zM127.17 262.145v0c0.108-0.796-0.05-1.452-0.474-1.969-0.423-0.516-1.023-0.827-1.798-0.932v0c-0.259-0.035-0.53-0.048-0.815-0.039-0.277 0.003-0.543 0.021-0.798 0.054v0l-0.957 5.351c0.169 0.05 0.333 0.086 0.492 0.107 0.166 0.022 0.335 0.045 0.508 0.069v0c0.438 0.059 0.872 0.044 1.303-0.047 0.438-0.096 0.835-0.258 1.19-0.487 0.356-0.235 0.656-0.529 0.899-0.882 0.236-0.346 0.386-0.755 0.45-1.225z" fill="#c8c8c8" data-fill-palette-color="default"></path><path d="M140.814 254.783l9.879-0.927-1.007 25.421-7.838 0.723z" fill="#c8c8c8" data-fill-palette-color="default"></path><path d="M170.81 249.284l8.474-2.335 4.568 24.857-9.283 3.137-8.209-11.931 2.401 13.587-8.143 1.946-5.48-25.825 8.948-2.593 9.374 11.539z" fill="#c8c8c8" data-fill-palette-color="default"></path><path d="M196.495 238.118l18.098 18.789-7.62 5.351-2.946-3.202-3.758 1.978 1.134 4.157-8.829 3.594-4.994-25.383zM198.31 255.633l2.469-1.3-4.269-5.07z" fill="#c8c8c8" data-fill-palette-color="default"></path><path d="M218.53 220.474l7.455-6.679 16.964 21.491-6.078 5.944-9.568-10.783 4.895 11.209-2.437 2.184-9.118-5.768 8.016 9.006-6.226 5.929-16.886-19.403 6.877-6.661 11.046 6.642z" fill="#c8c8c8" data-fill-palette-color="default"></path><path d="M256.874 204.538v0c0.858 0.572 1.49 1.222 1.896 1.951 0.41 0.724 0.656 1.495 0.738 2.314 0.086 0.813 0.035 1.656-0.152 2.528-0.184 0.867-0.446 1.725-0.788 2.576-0.338 0.845-0.73 1.657-1.177 2.436-0.445 0.789-0.885 1.509-1.32 2.161v0c-0.427 0.64-0.894 1.287-1.4 1.938-0.501 0.655-1.038 1.287-1.612 1.894-0.564 0.605-1.162 1.176-1.792 1.713-0.633 0.527-1.291 0.99-1.974 1.386v0l-19.971-13.26c0.152-0.735 0.348-1.493 0.587-2.275 0.245-0.778 0.528-1.546 0.848-2.306 0.325-0.765 0.676-1.504 1.055-2.216 0.382-0.718 0.783-1.392 1.203-2.022v0c0.486-0.73 1.024-1.441 1.614-2.133 0.592-0.683 1.229-1.3 1.91-1.852 0.677-0.546 1.387-1.002 2.13-1.367 0.746-0.371 1.521-0.611 2.324-0.719 0.807-0.113 1.631-0.075 2.47 0.114 0.841 0.198 1.699 0.589 2.573 1.171v0c0.579 0.386 1.067 0.831 1.462 1.337 0.399 0.499 0.695 1.038 0.889 1.617 0.199 0.583 0.293 1.189 0.284 1.818-0.013 0.635-0.138 1.275-0.376 1.921v0c0.618-0.553 1.282-0.995 1.994-1.325 0.713-0.321 1.439-0.513 2.18-0.574 0.744-0.067 1.491-0.004 2.238 0.189 0.754 0.197 1.476 0.525 2.167 0.985zM242.799 206.523v0c-0.301-0.2-0.598-0.31-0.891-0.329-0.297-0.013-0.572 0.025-0.824 0.115-0.252 0.089-0.482 0.222-0.688 0.398-0.202 0.171-0.357 0.337-0.464 0.499v0c-0.137 0.206-0.24 0.427-0.309 0.662-0.072 0.241-0.128 0.482-0.167 0.721v0l3.372 2.38c0.156-0.234 0.331-0.539 0.526-0.916 0.199-0.382 0.336-0.782 0.412-1.197 0.076-0.416 0.051-0.831-0.076-1.245-0.121-0.41-0.418-0.773-0.891-1.088zM246.381 212.082v0c-0.2 0.301-0.36 0.613-0.479 0.936v0l3.481 2.416c0.137-0.134 0.27-0.266 0.398-0.398 0.122-0.136 0.232-0.276 0.329-0.42v0c0.145-0.217 0.28-0.469 0.406-0.755 0.13-0.291 0.197-0.597 0.2-0.916 0.013-0.321-0.047-0.635-0.181-0.941-0.139-0.31-0.404-0.595-0.794-0.855v0c-0.395-0.264-0.766-0.402-1.111-0.415-0.351-0.017-0.668 0.037-0.952 0.162-0.284 0.124-0.534 0.3-0.749 0.527-0.221 0.223-0.404 0.443-0.548 0.66z" fill="#c8c8c8" data-fill-palette-color="default"></path><path d="M247.086 175.308l26.021 1.856-2.083 9.075-4.332-0.409-1.468 3.985 3.623 2.33-4.157 8.579-20.694-15.524zM260.154 187.111l0.965-2.618-6.565-0.912z" fill="#c8c8c8" data-fill-palette-color="default"></path><path d="M2.927 140.055c0-5.843 4.737-10.58 10.58-10.58 5.843 0 10.58 4.737 10.58 10.58 0 5.843-4.737 10.58-10.58 10.58-5.843 0-10.58-4.737-10.58-10.58z" fill="#000000" data-fill-palette-color="primary"></path><path d="M255.913 140.055c0-5.843 4.737-10.58 10.58-10.58 5.843 0 10.58 4.737 10.58 10.58 0 5.843-4.737 10.58-10.58 10.58-5.843 0-10.58-4.737-10.58-10.58z" fill="#000000" data-fill-palette-color="primary"></path></g></svg></g></svg></g></svg></g></svg></g><defs></defs></svg><rect width="280" height="280" fill="none" stroke="none" visibility="hidden"></rect></g></svg></g></svg>